<mxfile host="app.diagrams.net" modified="2023-03-13T14:38:07.994Z" agent="5.0 (Windows NT 10.0; Win64; x64) AppleWebKit/537.36 (KHTML, like Gecko) Chrome/111.0.0.0 Safari/537.36" etag="SrD7_a7Qu936NkLXZ7cn" version="21.0.6" type="github">
  <diagram name="Page-1" id="MCOTx_tLaB3hL-FFBj0m">
    <mxGraphModel dx="662" dy="386" grid="1" gridSize="10" guides="1" tooltips="1" connect="1" arrows="1" fold="1" page="1" pageScale="1" pageWidth="850" pageHeight="1100" math="0" shadow="0">
      <root>
        <mxCell id="0" />
        <mxCell id="1" parent="0" />
        <mxCell id="fEL62eBCo5-GnJdXJDbS-2" value="" style="rounded=0;whiteSpace=wrap;html=1;" vertex="1" parent="1">
          <mxGeometry x="205" y="40" width="440" height="1000" as="geometry" />
        </mxCell>
        <mxCell id="fEL62eBCo5-GnJdXJDbS-3" value="МојТермин" style="text;strokeColor=none;fillColor=none;html=1;align=center;verticalAlign=middle;whiteSpace=wrap;rounded=0;fontSize=16;" vertex="1" parent="1">
          <mxGeometry x="375" y="50" width="90" height="30" as="geometry" />
        </mxCell>
        <mxCell id="fEL62eBCo5-GnJdXJDbS-9" value="Лекар" style="shape=umlActor;verticalLabelPosition=bottom;verticalAlign=top;html=1;outlineConnect=0;fontSize=16;" vertex="1" parent="1">
          <mxGeometry x="120" y="84" width="30" height="60" as="geometry" />
        </mxCell>
        <mxCell id="fEL62eBCo5-GnJdXJDbS-10" value="&lt;font style=&quot;font-size: 13px;&quot;&gt;најава&lt;/font&gt;" style="ellipse;whiteSpace=wrap;html=1;fontSize=16;align=center;" vertex="1" parent="1">
          <mxGeometry x="250" y="99" width="70" height="40" as="geometry" />
        </mxCell>
        <mxCell id="fEL62eBCo5-GnJdXJDbS-11" value="" style="endArrow=none;html=1;rounded=0;fontSize=12;startSize=8;endSize=8;curved=1;entryX=0;entryY=0.5;entryDx=0;entryDy=0;" edge="1" parent="1" source="fEL62eBCo5-GnJdXJDbS-9" target="fEL62eBCo5-GnJdXJDbS-10">
          <mxGeometry width="50" height="50" relative="1" as="geometry">
            <mxPoint x="400" y="260" as="sourcePoint" />
            <mxPoint x="450" y="210" as="targetPoint" />
          </mxGeometry>
        </mxCell>
        <mxCell id="fEL62eBCo5-GnJdXJDbS-13" value="&lt;font style=&quot;font-size: 11px;&quot;&gt;Дали Валидна&lt;br&gt;&lt;/font&gt;" style="ellipse;whiteSpace=wrap;html=1;fontSize=16;" vertex="1" parent="1">
          <mxGeometry x="380" y="94" width="80" height="50" as="geometry" />
        </mxCell>
        <mxCell id="fEL62eBCo5-GnJdXJDbS-15" value="" style="endArrow=open;endFill=1;endSize=12;html=1;rounded=0;fontSize=12;curved=1;entryX=0;entryY=0.5;entryDx=0;entryDy=0;exitX=1;exitY=0.5;exitDx=0;exitDy=0;" edge="1" parent="1" source="fEL62eBCo5-GnJdXJDbS-10" target="fEL62eBCo5-GnJdXJDbS-13">
          <mxGeometry width="160" relative="1" as="geometry">
            <mxPoint x="230" y="190" as="sourcePoint" />
            <mxPoint x="390" y="190" as="targetPoint" />
          </mxGeometry>
        </mxCell>
        <mxCell id="fEL62eBCo5-GnJdXJDbS-16" value="&lt;font style=&quot;font-size: 8px;&quot;&gt;&amp;lt;&amp;lt;include&amp;gt;&amp;gt;&lt;/font&gt;" style="text;strokeColor=none;fillColor=none;html=1;align=center;verticalAlign=middle;whiteSpace=wrap;rounded=0;fontSize=16;" vertex="1" parent="1">
          <mxGeometry x="330" y="99" width="40" height="10" as="geometry" />
        </mxCell>
        <mxCell id="fEL62eBCo5-GnJdXJDbS-19" value="Лекар&lt;br&gt;" style="shape=umlActor;verticalLabelPosition=bottom;verticalAlign=top;html=1;fontSize=16;" vertex="1" parent="1">
          <mxGeometry x="689.9999999999998" y="88.99999999999999" width="30" height="60" as="geometry" />
        </mxCell>
        <mxCell id="fEL62eBCo5-GnJdXJDbS-22" value="&lt;font style=&quot;font-size: 13px;&quot;&gt;Грешка/&lt;br&gt;Не Валидна&lt;/font&gt;" style="ellipse;whiteSpace=wrap;html=1;fontSize=16;" vertex="1" parent="1">
          <mxGeometry x="465" y="200" width="110" height="50" as="geometry" />
        </mxCell>
        <mxCell id="fEL62eBCo5-GnJdXJDbS-25" value="" style="endArrow=open;endFill=1;endSize=12;html=1;rounded=0;fontSize=12;curved=1;exitX=0.918;exitY=0.83;exitDx=0;exitDy=0;exitPerimeter=0;" edge="1" parent="1" source="fEL62eBCo5-GnJdXJDbS-13" target="fEL62eBCo5-GnJdXJDbS-22">
          <mxGeometry width="160" relative="1" as="geometry">
            <mxPoint x="330" y="129" as="sourcePoint" />
            <mxPoint x="390" y="129" as="targetPoint" />
          </mxGeometry>
        </mxCell>
        <mxCell id="fEL62eBCo5-GnJdXJDbS-26" value="&lt;font style=&quot;font-size: 8px;&quot;&gt;OR&lt;br&gt;&lt;/font&gt;" style="text;strokeColor=none;fillColor=none;html=1;align=center;verticalAlign=middle;whiteSpace=wrap;rounded=0;fontSize=16;" vertex="1" parent="1">
          <mxGeometry x="470" y="130" width="40" height="10" as="geometry" />
        </mxCell>
        <mxCell id="fEL62eBCo5-GnJdXJDbS-28" value="" style="endArrow=none;dashed=1;html=1;dashPattern=1 3;strokeWidth=2;rounded=0;fontSize=12;startSize=8;endSize=8;curved=1;exitX=0.5;exitY=0;exitDx=0;exitDy=0;" edge="1" parent="1" source="fEL62eBCo5-GnJdXJDbS-26">
          <mxGeometry width="50" height="50" relative="1" as="geometry">
            <mxPoint x="360" y="230" as="sourcePoint" />
            <mxPoint x="490" y="110" as="targetPoint" />
          </mxGeometry>
        </mxCell>
        <mxCell id="fEL62eBCo5-GnJdXJDbS-29" value="" style="endArrow=none;dashed=1;html=1;dashPattern=1 3;strokeWidth=2;rounded=0;fontSize=12;startSize=8;endSize=8;curved=1;entryX=0.5;entryY=1;entryDx=0;entryDy=0;exitX=0.75;exitY=0;exitDx=0;exitDy=0;" edge="1" parent="1" source="fEL62eBCo5-GnJdXJDbS-32" target="fEL62eBCo5-GnJdXJDbS-26">
          <mxGeometry width="50" height="50" relative="1" as="geometry">
            <mxPoint x="490" y="170" as="sourcePoint" />
            <mxPoint x="500" y="130" as="targetPoint" />
          </mxGeometry>
        </mxCell>
        <mxCell id="fEL62eBCo5-GnJdXJDbS-30" value="&lt;span style=&quot;font-size: 13px;&quot;&gt;Успешна&lt;/span&gt;" style="ellipse;whiteSpace=wrap;html=1;fontSize=16;" vertex="1" parent="1">
          <mxGeometry x="520" y="89" width="110" height="50" as="geometry" />
        </mxCell>
        <mxCell id="fEL62eBCo5-GnJdXJDbS-31" value="" style="endArrow=open;endFill=1;endSize=12;html=1;rounded=0;fontSize=12;curved=1;entryX=0.003;entryY=0.433;entryDx=0;entryDy=0;exitX=0.975;exitY=0.4;exitDx=0;exitDy=0;exitPerimeter=0;entryPerimeter=0;" edge="1" parent="1" source="fEL62eBCo5-GnJdXJDbS-13" target="fEL62eBCo5-GnJdXJDbS-30">
          <mxGeometry width="160" relative="1" as="geometry">
            <mxPoint x="460" y="113.76" as="sourcePoint" />
            <mxPoint x="520" y="113.76" as="targetPoint" />
          </mxGeometry>
        </mxCell>
        <mxCell id="fEL62eBCo5-GnJdXJDbS-32" value="&lt;font style=&quot;font-size: 8px;&quot;&gt;&amp;lt;&amp;lt;include&amp;gt;&amp;gt;&lt;/font&gt;" style="text;strokeColor=none;fillColor=none;html=1;align=center;verticalAlign=middle;whiteSpace=wrap;rounded=0;fontSize=16;rotation=45;" vertex="1" parent="1">
          <mxGeometry x="450" y="160" width="40" height="10" as="geometry" />
        </mxCell>
        <mxCell id="fEL62eBCo5-GnJdXJDbS-33" value="&lt;font style=&quot;font-size: 8px;&quot;&gt;&amp;lt;&amp;lt;include&amp;gt;&amp;gt;&lt;/font&gt;" style="text;strokeColor=none;fillColor=none;html=1;align=center;verticalAlign=middle;whiteSpace=wrap;rounded=0;fontSize=16;" vertex="1" parent="1">
          <mxGeometry x="465" y="94" width="40" height="10" as="geometry" />
        </mxCell>
        <mxCell id="fEL62eBCo5-GnJdXJDbS-34" value="" style="endArrow=none;html=1;rounded=0;fontSize=12;startSize=8;endSize=8;curved=1;exitX=1;exitY=0.5;exitDx=0;exitDy=0;" edge="1" parent="1" source="fEL62eBCo5-GnJdXJDbS-30" target="fEL62eBCo5-GnJdXJDbS-19">
          <mxGeometry width="50" height="50" relative="1" as="geometry">
            <mxPoint x="620" y="190" as="sourcePoint" />
            <mxPoint x="750" y="198" as="targetPoint" />
          </mxGeometry>
        </mxCell>
        <mxCell id="fEL62eBCo5-GnJdXJDbS-37" value="" style="endArrow=open;endFill=1;endSize=12;html=1;rounded=0;fontSize=12;curved=1;exitX=0;exitY=0.5;exitDx=0;exitDy=0;entryX=1;entryY=1;entryDx=0;entryDy=0;" edge="1" parent="1" source="fEL62eBCo5-GnJdXJDbS-22" target="fEL62eBCo5-GnJdXJDbS-10">
          <mxGeometry width="160" relative="1" as="geometry">
            <mxPoint x="376" y="170" as="sourcePoint" />
            <mxPoint x="425" y="216" as="targetPoint" />
          </mxGeometry>
        </mxCell>
        <mxCell id="fEL62eBCo5-GnJdXJDbS-38" value="&lt;span style=&quot;font-size: 8px;&quot;&gt;&amp;lt;&amp;lt;extends&amp;gt;&amp;gt;&lt;/span&gt;" style="text;strokeColor=none;fillColor=none;html=1;align=center;verticalAlign=middle;whiteSpace=wrap;rounded=0;fontSize=16;rotation=30;" vertex="1" parent="1">
          <mxGeometry x="393" y="172" width="40" height="10" as="geometry" />
        </mxCell>
        <mxCell id="fEL62eBCo5-GnJdXJDbS-39" value="&lt;font style=&quot;font-size: 11px;&quot;&gt;прва најава/&lt;br&gt;смена на лозинка&lt;br&gt;&lt;/font&gt;" style="ellipse;whiteSpace=wrap;html=1;fontSize=16;align=center;" vertex="1" parent="1">
          <mxGeometry x="220" y="200" width="100" height="78" as="geometry" />
        </mxCell>
        <mxCell id="fEL62eBCo5-GnJdXJDbS-40" value="" style="endArrow=none;html=1;rounded=0;fontSize=12;startSize=8;endSize=8;curved=1;entryX=0.051;entryY=0.276;entryDx=0;entryDy=0;entryPerimeter=0;" edge="1" parent="1" source="fEL62eBCo5-GnJdXJDbS-9" target="fEL62eBCo5-GnJdXJDbS-39">
          <mxGeometry width="50" height="50" relative="1" as="geometry">
            <mxPoint x="160" y="125" as="sourcePoint" />
            <mxPoint x="260" y="129" as="targetPoint" />
          </mxGeometry>
        </mxCell>
        <mxCell id="fEL62eBCo5-GnJdXJDbS-41" value="" style="endArrow=open;endFill=1;endSize=12;html=1;rounded=0;fontSize=12;curved=1;" edge="1" parent="1" source="fEL62eBCo5-GnJdXJDbS-39" target="fEL62eBCo5-GnJdXJDbS-10">
          <mxGeometry width="160" relative="1" as="geometry">
            <mxPoint x="450" y="262" as="sourcePoint" />
            <mxPoint x="295" y="170" as="targetPoint" />
          </mxGeometry>
        </mxCell>
        <mxCell id="fEL62eBCo5-GnJdXJDbS-42" value="&lt;span style=&quot;font-size: 8px;&quot;&gt;&amp;lt;&amp;lt;extends&amp;gt;&amp;gt;&lt;/span&gt;" style="text;strokeColor=none;fillColor=none;html=1;align=center;verticalAlign=middle;whiteSpace=wrap;rounded=0;fontSize=16;rotation=-85;" vertex="1" parent="1">
          <mxGeometry x="250" y="170" width="40" height="10" as="geometry" />
        </mxCell>
        <mxCell id="fEL62eBCo5-GnJdXJDbS-43" value="Пациент" style="shape=umlActor;verticalLabelPosition=bottom;verticalAlign=top;html=1;outlineConnect=0;fontSize=16;" vertex="1" parent="1">
          <mxGeometry x="120" y="320" width="30" height="60" as="geometry" />
        </mxCell>
      </root>
    </mxGraphModel>
  </diagram>
</mxfile>
